<svg xmlns="http://www.w3.org/2000/svg" viewBox="0 0 32 32" fill="none">
  <path
    fill="#ffffff"
    d="M6.2 11.4c7.6-2.7 16.1-2.1 23.2 1.6.6.3.8 1 .5 1.6-.3.6-1 .8-1.6.5-6.4-3.4-13.8-3.9-20.3-1.5-.6.2-1.2-.2-1.4-.8-.2-.6.2-1.2.8-1.4z"
  />
  <path
    fill="#ffffff"
    d="M7.2 15.2c6.3-2.2 13.4-1.7 19.3 1.3.5.3.6.9.3 1.3-.3.5-.9.6-1.4.3-5.3-2.8-11.6-3.2-17-1.3-.5.2-1.1-.1-1.3-.6-.2-.5.1-1.1.6-1.3z"
  />
  <path
    fill="#ffffff"
    d="M8.2 19c5.2-1.8 11.1-1.4 16 1.1.4.2.5.7.3 1-.2.4-.7.5-1 .3-4.5-2.4-9.8-2.7-14.4-1-.4.1-.9-.1-1-.5s.1-.9.5-1z"
  />
</svg>
